<svg width="40" height="29" viewBox="0 0 40 29" fill="none" xmlns="http://www.w3.org/2000/svg">
<path d="M10 29C7.24242 29 4.88606 28.0484 2.93091 26.1453C0.975758 24.2422 -0.00121099 21.9161 1.12651e-06 19.1672C1.12651e-06 16.8109 0.712122 14.7115 2.13636 12.8688C3.56061 11.026 5.42424 9.84792 7.72727 9.33437C8.48485 6.55521 10 4.30469 12.2727 2.58281C14.5455 0.860938 17.1212 0 20 0C23.5455 0 26.5533 1.23129 29.0236 3.69388C31.4939 6.15646 32.7285 9.15433 32.7273 12.6875C34.8182 12.9292 36.5533 13.8282 37.9327 15.3845C39.3121 16.9408 40.0012 18.7606 40 20.8438C40 23.1094 39.2042 25.0355 37.6127 26.622C36.0212 28.2085 34.0897 29.0012 31.8182 29H10Z" fill="#1D1A45"/>
</svg>
