<svg width="72" height="54" viewBox="0 0 72 54" fill="none" xmlns="http://www.w3.org/2000/svg">
<path d="M34.4589 19.824V12H27.7389V8.11196H34.4589V0.287964H38.2989V8.11196H45.2589V12H38.2989V19.824H34.4589Z" fill="black"/>
<path d="M0.788086 50L4.22809 33.8H6.40809L9.86809 50H7.72809L6.98809 45.92H3.68809L2.90809 50H0.788086ZM3.98809 44.3H6.68809L5.32809 37L3.98809 44.3Z" fill="black"/>
<path d="M16.0118 50.16C15.0385 50.16 14.3118 49.8066 13.8318 49.1C13.3518 48.38 13.1118 47.1666 13.1118 45.46V43.22C13.1118 42.34 13.1852 41.5266 13.3318 40.78C13.4785 40.02 13.7518 39.4133 14.1518 38.96C14.5652 38.5066 15.1652 38.28 15.9518 38.28C16.3385 38.28 16.6918 38.3666 17.0118 38.54C17.3318 38.7133 17.6185 38.9266 17.8718 39.18V33.8H20.0118V50H17.8718V49.26C17.6185 49.5266 17.3385 49.7466 17.0318 49.92C16.7385 50.08 16.3985 50.16 16.0118 50.16ZM16.5518 48.48C16.7518 48.48 16.9652 48.4466 17.1918 48.38C17.4185 48.3 17.6452 48.1866 17.8718 48.04V40.46C17.6852 40.3266 17.4785 40.2133 17.2518 40.12C17.0252 40.0133 16.7785 39.96 16.5118 39.96C16.0185 39.96 15.6852 40.2 15.5118 40.68C15.3385 41.1466 15.2518 41.7133 15.2518 42.38V45.64C15.2518 46.1733 15.2785 46.66 15.3318 47.1C15.3985 47.5266 15.5252 47.8666 15.7118 48.12C15.8985 48.36 16.1785 48.48 16.5518 48.48Z" fill="black"/>
<path d="M26.8595 50.16C25.8862 50.16 25.1595 49.8066 24.6795 49.1C24.1995 48.38 23.9595 47.1666 23.9595 45.46V43.22C23.9595 42.34 24.0328 41.5266 24.1795 40.78C24.3262 40.02 24.5995 39.4133 24.9995 38.96C25.4128 38.5066 26.0128 38.28 26.7995 38.28C27.1862 38.28 27.5395 38.3666 27.8595 38.54C28.1795 38.7133 28.4662 38.9266 28.7195 39.18V33.8H30.8595V50H28.7195V49.26C28.4662 49.5266 28.1862 49.7466 27.8795 49.92C27.5862 50.08 27.2462 50.16 26.8595 50.16ZM27.3995 48.48C27.5995 48.48 27.8128 48.4466 28.0395 48.38C28.2662 48.3 28.4928 48.1866 28.7195 48.04V40.46C28.5328 40.3266 28.3262 40.2133 28.0995 40.12C27.8728 40.0133 27.6262 39.96 27.3595 39.96C26.8662 39.96 26.5328 40.2 26.3595 40.68C26.1862 41.1466 26.0995 41.7133 26.0995 42.38V45.64C26.0995 46.1733 26.1262 46.66 26.1795 47.1C26.2462 47.5266 26.3728 47.8666 26.5595 48.12C26.7462 48.36 27.0262 48.48 27.3995 48.48Z" fill="black"/>
<path d="M44.6775 50.16C44.0775 50.16 43.5908 50.0466 43.2175 49.82C42.8575 49.5933 42.5908 49.2733 42.4175 48.86C42.2575 48.4466 42.1775 47.96 42.1775 47.4V39.86H40.9575V38.44H42.1775V35.06H44.3175V38.44H46.1775V39.86H44.3175V47.26C44.3175 47.7133 44.3908 48.04 44.5375 48.24C44.6841 48.4266 44.9641 48.52 45.3775 48.52C45.4841 48.52 45.6041 48.5133 45.7375 48.5C45.8841 48.4866 46.0241 48.4733 46.1575 48.46V50.04C45.8908 50.08 45.6441 50.1066 45.4175 50.12C45.1908 50.1466 44.9441 50.16 44.6775 50.16Z" fill="black"/>
<path d="M49.8098 50V38.44H51.9498V40.08C52.3765 39.3733 52.8031 38.9 53.2298 38.66C53.6565 38.42 54.0831 38.3 54.5098 38.3C54.5631 38.3 54.6098 38.3 54.6498 38.3C54.7031 38.3 54.7698 38.3066 54.8498 38.32V40.68C54.6898 40.6133 54.5031 40.56 54.2898 40.52C54.0898 40.4666 53.8831 40.44 53.6698 40.44C53.3365 40.44 53.0298 40.52 52.7498 40.68C52.4831 40.8266 52.2165 41.12 51.9498 41.56V50H49.8098Z" fill="black"/>
<path d="M58.3156 50V38.44H60.4556V50H58.3156ZM58.3156 36.72V34.48H60.4556V36.72H58.3156Z" fill="black"/>
<path d="M64.7459 53.8V38.44H66.8859V39.36C67.1392 39.0666 67.4459 38.8133 67.8059 38.6C68.1659 38.3866 68.5926 38.28 69.0859 38.28C69.6859 38.28 70.1592 38.44 70.5059 38.76C70.8659 39.0666 71.1326 39.46 71.3059 39.94C71.4792 40.4066 71.5926 40.8866 71.6459 41.38C71.6992 41.86 71.7259 42.2733 71.7259 42.62V45.42C71.7259 46.2333 71.6459 47.0066 71.4859 47.74C71.3259 48.46 71.0326 49.0466 70.6059 49.5C70.1926 49.94 69.6059 50.16 68.8459 50.16C68.4326 50.16 68.0659 50.06 67.7459 49.86C67.4259 49.6466 67.1392 49.4066 66.8859 49.14V53.8H64.7459ZM68.4259 48.48C68.7992 48.48 69.0659 48.3466 69.2259 48.08C69.3859 47.8 69.4859 47.4266 69.5259 46.96C69.5659 46.4933 69.5859 45.98 69.5859 45.42V42.62C69.5859 42.14 69.5592 41.7 69.5059 41.3C69.4526 40.8866 69.3392 40.56 69.1659 40.32C68.9926 40.08 68.7192 39.96 68.3459 39.96C68.0659 39.96 67.7992 40.02 67.5459 40.14C67.2926 40.26 67.0726 40.4 66.8859 40.56V47.96C67.0859 48.1066 67.3126 48.2333 67.5659 48.34C67.8192 48.4333 68.1059 48.48 68.4259 48.48Z" fill="black"/>
</svg>
